<svg xmlns="http://www.w3.org/2000/svg" xmlns:xlink="http://www.w3.org/1999/xlink" width="1366" height="768" viewBox="0 0 1366 768">
  <defs>
    <filter id="Rectangle_1" x="31" y="503" width="246" height="81" filterUnits="userSpaceOnUse">
      <feOffset input="SourceAlpha"/>
      <feGaussianBlur stdDeviation="5" result="blur"/>
      <feFlood flood-opacity="0.31"/>
      <feComposite operator="in" in2="blur"/>
      <feComposite in="SourceGraphic"/>
    </filter>
    <filter id="Rectangle_1-2" x="278" y="503" width="246" height="81" filterUnits="userSpaceOnUse">
      <feOffset input="SourceAlpha"/>
      <feGaussianBlur stdDeviation="5" result="blur-2"/>
      <feFlood flood-opacity="0.31"/>
      <feComposite operator="in" in2="blur-2"/>
      <feComposite in="SourceGraphic"/>
    </filter>
    <clipPath id="clip-Web_1366_1">
      <rect width="1366" height="768"/>
    </clipPath>
  </defs>
  <g id="Web_1366_1" data-name="Web 1366 – 1" clip-path="url(#clip-Web_1366_1)">
    <rect width="1366" height="768" fill="#fbf9ff"/>
    <text id="LEARNING_NEVER_STOPS." data-name="LEARNING NEVER
STOPS." transform="translate(46 297)" fill="#010101" font-size="70" font-family="SegoeUI-Bold, Segoe UI" font-weight="700"><tspan x="0" y="0">LEARNING NEVER</tspan><tspan x="0" y="83">STOPS.</tspan></text>
    <text id="STAY_CURIOUS." data-name="STAY CURIOUS." transform="translate(46 474)" fill="#010101" font-size="70" font-family="SegoeUI-Bold, Segoe UI" font-weight="700" opacity="0.7"><tspan x="0" y="0">STAY CURIOUS.</tspan></text>
    <g id="Group_1" data-name="Group 1" transform="translate(-86 41.036)">
      <g transform="matrix(1, 0, 0, 1, 86, -41.04)" filter="url(#Rectangle_1)">
        <g id="Rectangle_1-3" data-name="Rectangle 1" transform="translate(46 518)" fill="#772828" stroke="#707070" stroke-width="1">
          <rect width="216" height="51" rx="12" stroke="none"/>
          <rect x="0.5" y="0.5" width="215" height="50" rx="11.5" fill="none"/>
        </g>
      </g>
      <text id="Student" transform="translate(194 512.964)" fill="#fff" font-size="26" font-family="SegoeUI-Semibold, Segoe UI" font-weight="600"><tspan x="0" y="0">Student</tspan></text>
    </g>
    <g id="Group_2" data-name="Group 2" transform="translate(161 41.036)">
      <g transform="matrix(1, 0, 0, 1, -161, -41.04)" filter="url(#Rectangle_1-2)">
        <g id="Rectangle_1-4" data-name="Rectangle 1" transform="translate(293 518)" fill="#772828" stroke="#707070" stroke-width="1">
          <rect width="216" height="51" rx="12" stroke="none"/>
          <rect x="0.5" y="0.5" width="215" height="50" rx="11.5" fill="none"/>
        </g>
      </g>
      <text id="Staff" transform="translate(213 512.964)" fill="#fff" font-size="26" font-family="SegoeUI-Semibold, Segoe UI" font-weight="600"><tspan x="0" y="0">Staff</tspan></text>
    </g>
    <text id="E-LEARNING" transform="translate(560 69)" fill="#772828" font-size="30" font-family="SegoeUI-SemiboldItalic, Segoe UI" font-weight="600" font-style="italic"><tspan x="0" y="0">E-LEARNING</tspan></text>
    <g id="Group_3" data-name="Group 3" transform="translate(5)">
      <line id="Line_1" data-name="Line 1" x2="27" y2="27" transform="translate(41.5 26.5)" fill="none" stroke="#772828" stroke-width="1.5"/>
      <line id="Line_1-2" data-name="Line 1" x2="27" y2="27" transform="translate(41.5 37.75)" fill="none" stroke="#772828" stroke-width="1.5"/>
      <line id="Line_1-3" data-name="Line 1" x2="27" y2="27" transform="translate(41.5 49)" fill="none" stroke="#772828" stroke-width="1.5"/>
    </g>
    <text id="SIGN_UP" data-name="SIGN UP" transform="translate(1059 60)" fill="#772828" font-size="18" font-family="SegoeUI-Semibold, Segoe UI" font-weight="600"><tspan x="0" y="0">SIGN UP</tspan></text>
    <text id="SIGN_IN" data-name="SIGN IN" transform="translate(1216 60)" fill="#772828" font-size="18" font-family="SegoeUI-Semibold, Segoe UI" font-weight="600"><tspan x="0" y="0">SIGN IN</tspan></text>
    <g id="onlineLearning" transform="translate(704 212)">
      <path id="Path_1" data-name="Path 1" d="M874.436,695.9H254.9a.9.9,0,0,1,0-1.8H874.436a.9.9,0,0,1,0,1.8Z" transform="translate(-254 -250.513)" fill="#ccc"/>
      <path id="Path_2" data-name="Path 2" d="M834.58,521.7H470.04a5.836,5.836,0,0,0,0,11.672h10.326V673a5.836,5.836,0,0,0,11.672,0l.089-139.62H811.684V673a5.836,5.836,0,0,0,11.672,0V536.452l1.7-3.077h9.526a5.836,5.836,0,0,0,0-11.672Z" transform="translate(-275.466 -232.907)" fill="#ccc"/>
      <path id="Path_3" data-name="Path 3" d="M682.318,516.356H571.895a8.074,8.074,0,0,1-8.065-8.065V447.5a8.074,8.074,0,0,1,8.065-8.065H682.318a8.074,8.074,0,0,1,8.065,8.065v60.795a8.074,8.074,0,0,1-8.065,8.065Z" transform="translate(-285.64 -224.506)" fill="#3f3d56"/>
      <path id="Path_4" data-name="Path 4" d="M683.023,446.345H572.6a1.862,1.862,0,0,0-1.858,1.859V509a1.862,1.862,0,0,0,1.858,1.859H683.023A1.862,1.862,0,0,0,684.882,509V448.2a1.862,1.862,0,0,0-1.858-1.859Z" transform="translate(-286.346 -225.212)" fill="#fff"/>
      <path id="Path_5" data-name="Path 5" d="M642.251,494.189s-13.219-3.046-20.489,2.538S631.015,515,631.015,515Z" transform="translate(-291.367 -230.013)" fill="#2f2e41"/>
      <circle id="Ellipse_1" data-name="Ellipse 1" cx="12.469" cy="12.469" r="12.469" transform="translate(329.645 233.482)" fill="#a0616a"/>
      <path id="Path_6" data-name="Path 6" d="M623.492,453.994a8.887,8.887,0,0,1,8.194-4.36,17.414,17.414,0,0,1,4.952,1.386l8.151,3.18c2.109.823,4.419,1.831,5.335,3.9.849,1.922.216,4.142-.426,6.143l-3.05,9.512a28.951,28.951,0,0,0-1.728-6.283,9.728,9.728,0,0,0-4.224-4.816c-2.117-1.086-4.613-1.064-6.99-.949-3.366.162-7.026.59-9.418,2.965a9.783,9.783,0,0,0-2.482,4.848,29.185,29.185,0,0,0-.521,5.488,45.492,45.492,0,0,1-3.474-7.448,18.428,18.428,0,0,1-1.291-6.029,8.48,8.48,0,0,1,1.944-5.735,5.563,5.563,0,0,1,5.594-1.761Z" transform="translate(-291.02 -225.546)" fill="#2f2e41"/>
      <path id="Path_7" data-name="Path 7" d="M661.571,504.915a2.219,2.219,0,0,0-1.858-1.607.769.769,0,0,0-.09-.054l-18.614-10.432a2.367,2.367,0,0,0-3.168.815l-5.091,8.243-7.668-7.668-.122-.122a2.367,2.367,0,0,0-3.032-.265l-15.3,10.713c-.027,0-.054.009-.081.009a3.262,3.262,0,0,0-2.721,3.044l-.4,7.982h61.092Z" transform="translate(-289.684 -229.927)" fill="#6c63ff"/>
      <path id="Path_8" data-name="Path 8" d="M691.059,516.673H679.272a1.241,1.241,0,0,0-1.241-1.241h-3.722a1.241,1.241,0,0,0-1.241,1.241h-3.722a1.241,1.241,0,0,0-1.241-1.241h-3.721a1.241,1.241,0,0,0-1.241,1.241h-3.722a1.241,1.241,0,0,0-1.241-1.241h-3.722a1.241,1.241,0,0,0-1.241,1.241H649.5a1.241,1.241,0,0,0-1.241-1.241h-3.722a1.241,1.241,0,0,0-1.241,1.241H639.57a1.241,1.241,0,0,0-1.241-1.241h-3.722a1.241,1.241,0,0,0-1.241,1.241h-3.722a1.241,1.241,0,0,0-1.241-1.241h-3.722a1.241,1.241,0,0,0-1.241,1.241h-3.722a1.241,1.241,0,0,0-1.241-1.241h-3.722a1.241,1.241,0,0,0-1.241,1.241h-3.722a1.241,1.241,0,0,0-1.241-1.241H604.83a1.241,1.241,0,0,0-1.241,1.241h-3.722a1.241,1.241,0,0,0-1.241-1.241H594.9a1.241,1.241,0,0,0-1.241,1.241h-3.722a1.241,1.241,0,0,0-1.241-1.241h-3.722a1.241,1.241,0,0,0-1.241,1.241h-3.722a1.241,1.241,0,0,0-1.241-1.241h-3.722a1.241,1.241,0,0,0-1.241,1.241H562.026a3.722,3.722,0,0,0,0,7.444H691.059a3.722,3.722,0,0,0,0-7.444Z" transform="translate(-285.075 -232.267)" fill="#3f3d56"/>
      <path id="Path_9" data-name="Path 9" d="M532.581,492.739v24.715h-61.92a12.365,12.365,0,1,1,0-24.715Z" transform="translate(-274.819 -229.949)" fill="#f2f2f2"/>
      <path id="Path_10" data-name="Path 10" d="M533.951,517.2a.951.951,0,0,1-.951.951H469.407a13.023,13.023,0,0,1,0-26.046H533a.951.951,0,0,1,0,1.9H469.407a11.122,11.122,0,1,0,0,22.243H533A.951.951,0,0,1,533.951,517.2Z" transform="translate(-274.667 -229.885)" fill="#6c63ff"/>
      <path id="Path_11" data-name="Path 11" d="M533.49,499.049h-66.54a.19.19,0,1,1,0-.38h66.54a.19.19,0,1,1,0,.38Z" transform="translate(-275.727 -230.555)" fill="#ccc"/>
      <path id="Path_12" data-name="Path 12" d="M533.49,504.131h-66.54a.19.19,0,1,1,0-.38h66.54a.19.19,0,1,1,0,.38Z" transform="translate(-275.727 -231.074)" fill="#ccc"/>
      <path id="Path_13" data-name="Path 13" d="M533.49,509.212h-66.54a.19.19,0,1,1,0-.38h66.54a.19.19,0,1,1,0,.38Z" transform="translate(-275.727 -231.593)" fill="#ccc"/>
      <path id="Path_14" data-name="Path 14" d="M533.49,514.294h-66.54a.19.19,0,1,1,0-.38h66.54a.19.19,0,0,1,0,.38Z" transform="translate(-275.727 -232.112)" fill="#ccc"/>
      <path id="Path_15" data-name="Path 15" d="M519.581,463.739v24.715h-61.92a12.365,12.365,0,1,1,0-24.715Z" transform="translate(-273.491 -226.987)" fill="#f2f2f2"/>
      <path id="Path_16" data-name="Path 16" d="M520.951,488.2a.951.951,0,0,1-.951.951H456.407a13.023,13.023,0,1,1,0-26.046H520a.951.951,0,0,1,0,1.9H456.407a11.122,11.122,0,1,0,0,22.243H520A.951.951,0,0,1,520.951,488.2Z" transform="translate(-273.34 -226.923)" fill="#3f3d56"/>
      <path id="Path_17" data-name="Path 17" d="M520.49,470.049h-66.54a.19.19,0,1,1,0-.38h66.54a.19.19,0,0,1,0,.38Z" transform="translate(-274.399 -227.594)" fill="#ccc"/>
      <path id="Path_18" data-name="Path 18" d="M520.49,475.131h-66.54a.19.19,0,1,1,0-.38h66.54a.19.19,0,0,1,0,.38Z" transform="translate(-274.399 -228.113)" fill="#ccc"/>
      <path id="Path_19" data-name="Path 19" d="M520.49,480.212h-66.54a.19.19,0,1,1,0-.38h66.54a.19.19,0,0,1,0,.38Z" transform="translate(-274.399 -228.632)" fill="#ccc"/>
      <path id="Path_20" data-name="Path 20" d="M520.49,485.294h-66.54a.19.19,0,1,1,0-.38h66.54a.19.19,0,0,1,0,.38Z" transform="translate(-274.399 -229.151)" fill="#ccc"/>
      <path id="Path_21" data-name="Path 21" d="M598.193,615.246V593.7A3.592,3.592,0,0,0,594.6,590.1H512.895A3.592,3.592,0,0,0,509.3,593.7v21.549Z" transform="translate(-280.071 -239.893)" fill="#ccc"/>
      <rect id="Rectangle_2" data-name="Rectangle 2" width="88.89" height="27.834" transform="translate(229.232 383.434)" fill="#ccc"/>
      <path id="Path_22" data-name="Path 22" d="M509.3,667.1v21.549a3.591,3.591,0,0,0,3.591,3.591H594.6a3.592,3.592,0,0,0,3.591-3.591V667.1Z" transform="translate(-280.071 -247.756)" fill="#ccc"/>
      <circle id="Ellipse_2" data-name="Ellipse 2" cx="2.694" cy="2.694" r="2.694" transform="translate(270.534 360.987)" fill="#fff"/>
      <circle id="Ellipse_3" data-name="Ellipse 3" cx="2.694" cy="2.694" r="2.694" transform="translate(270.534 396.902)" fill="#fff"/>
      <circle id="Ellipse_4" data-name="Ellipse 4" cx="2.694" cy="2.694" r="2.694" transform="translate(270.679 432.057)" fill="#fff"/>
      <path id="Path_23" data-name="Path 23" d="M588.581,562.739v24.715h-61.92a12.365,12.365,0,1,1,0-24.715Z" transform="translate(-280.537 -237.097)" fill="#f2f2f2"/>
      <path id="Path_24" data-name="Path 24" d="M589.951,587.2a.951.951,0,0,1-.951.951H525.407a13.023,13.023,0,0,1,0-26.046H589a.951.951,0,0,1,0,1.9H525.407a11.122,11.122,0,1,0,0,22.243H589a.951.951,0,0,1,.951.951Z" transform="translate(-280.386 -237.033)" fill="#3f3d56"/>
      <path id="Path_25" data-name="Path 25" d="M589.49,569.049h-66.54a.19.19,0,1,1,0-.38h66.54a.19.19,0,0,1,0,.38Z" transform="translate(-281.446 -237.704)" fill="#ccc"/>
      <path id="Path_26" data-name="Path 26" d="M589.49,574.131h-66.54a.19.19,0,1,1,0-.38h66.54a.19.19,0,0,1,0,.38Z" transform="translate(-281.446 -238.223)" fill="#ccc"/>
      <path id="Path_27" data-name="Path 27" d="M589.49,579.212h-66.54a.19.19,0,1,1,0-.38h66.54a.19.19,0,0,1,0,.38Z" transform="translate(-281.446 -238.741)" fill="#ccc"/>
      <path id="Path_28" data-name="Path 28" d="M589.49,584.294h-66.54a.19.19,0,1,1,0-.38h66.54a.19.19,0,0,1,0,.38Z" transform="translate(-281.446 -239.26)" fill="#ccc"/>
      <path id="Path_29" data-name="Path 29" d="M504.11,364.393V206.815a6.761,6.761,0,0,1,6.753-6.753H635.425a6.761,6.761,0,0,1,6.753,6.753V364.393a6.761,6.761,0,0,1-6.753,6.753H510.864a6.761,6.761,0,0,1-6.754-6.753Zm6.753-162.831a5.259,5.259,0,0,0-5.253,5.253V364.393a5.258,5.258,0,0,0,5.253,5.253H635.425a5.259,5.259,0,0,0,5.253-5.253V206.815a5.259,5.259,0,0,0-5.253-5.253Z" transform="translate(-279.541 -200.062)" fill="#e6e6e6"/>
      <path id="Path_30" data-name="Path 30" d="M588.776,276.6V244.24a3.38,3.38,0,0,1,3.377-3.377h27.419a3.38,3.38,0,0,1,3.377,3.377V276.6a3.38,3.38,0,0,1-3.377,3.377H592.153a3.38,3.38,0,0,1-3.377-3.377Z" transform="translate(-288.187 -204.228)" fill="#6c63ff"/>
      <path id="Path_31" data-name="Path 31" d="M529.44,293.31V260.954a3.38,3.38,0,0,1,3.377-3.377h27.419a3.38,3.38,0,0,1,3.377,3.377V293.31a3.38,3.38,0,0,1-3.377,3.377H532.817a3.38,3.38,0,0,1-3.377-3.376Z" transform="translate(-282.128 -205.935)" fill="#ccc"/>
      <path id="Path_32" data-name="Path 32" d="M577.076,344.288V311.933a3.38,3.38,0,0,1,3.377-3.377h27.419a3.381,3.381,0,0,1,3.377,3.377v32.356a3.38,3.38,0,0,1-3.377,3.377H580.453A3.38,3.38,0,0,1,577.076,344.288Z" transform="translate(-286.992 -211.141)" fill="#ff6584"/>
      <path id="Path_33" data-name="Path 33" d="M755.367,513.1H727.156a1.744,1.744,0,0,0-.772.18l-7.12,3.565a1.3,1.3,0,0,0,0,2.388l7.12,3.565a1.743,1.743,0,0,0,.772.18h28.211a1.481,1.481,0,0,0,1.563-1.374v-7.129A1.481,1.481,0,0,0,755.367,513.1Z" transform="translate(-301.432 -232.029)" fill="#3f3d56"/>
      <path id="Path_34" data-name="Path 34" d="M760.486,514.479v7.129a1.481,1.481,0,0,1-1.563,1.374H753.3V513.1h5.62a1.481,1.481,0,0,1,1.563,1.374Z" transform="translate(-304.989 -232.029)" fill="#6c63ff"/>
      <path id="Path_35" data-name="Path 35" d="M758.648,453.613a9.879,9.879,0,0,1,13.37,6.208,9.489,9.489,0,0,1,.287,1.288l39.451,19.563,9.13-6.05,11.36,13.078-13.94,11.322a10.01,10.01,0,0,1-11.943.461L766.336,471.8a9.433,9.433,0,0,1-.911.332,9.879,9.879,0,0,1-12.58-7.687,9.6,9.6,0,0,1-.146-1.2,9.909,9.909,0,0,1,5.949-9.633Z" transform="translate(-304.925 -225.872)" fill="#ffb8b8"/>
      <path id="Path_36" data-name="Path 36" d="M840.374,587.853H797.266c0,1.239-44.427,2.245-44.427,2.245a11.551,11.551,0,0,0-1.894,1.8,11.143,11.143,0,0,0-2.6,7.183v1.8A11.228,11.228,0,0,0,759.564,612.1h80.809A11.233,11.233,0,0,0,851.6,600.872v-1.8A11.239,11.239,0,0,0,840.374,587.853Z" transform="translate(-304.482 -239.663)" fill="#3f3d56"/>
      <rect id="Rectangle_3" data-name="Rectangle 3" width="11.672" height="75.422" transform="translate(500.674 447.409) rotate(180)" fill="#3f3d56"/>
      <path id="Path_37" data-name="Path 37" d="M761.617,696.619c0,1.261,17.688.488,39.507.488s39.507.773,39.507-.488-17.688-11.262-39.507-11.262S761.617,695.358,761.617,696.619Z" transform="translate(-305.838 -249.62)" fill="#3f3d56"/>
      <path id="Path_38" data-name="Path 38" d="M517.505,484.746H506.5l-5.237-28.55h16.246Z" transform="translate(-51.188 -46.586)" fill="#ffb8b8"/>
      <path id="Path_39" data-name="Path 39" d="M772.443,698.316H736.949v-.449a13.815,13.815,0,0,1,13.815-13.815h21.679Z" transform="translate(-303.319 -249.486)" fill="#2f2e41"/>
      <path id="Path_40" data-name="Path 40" d="M752.346,656.787,730.4,607.576a18.035,18.035,0,0,1,7.918-23.151l47.6-25.525,21.721-1.848,20.036-1.821.144.245c.185.312,4.493,7.753,1.581,15.912-2.209,6.189-7.954,11.023-17.077,14.368-21.293,7.807-45.89,14.48-55.477,16.986a3.1,3.1,0,0,0-1.985,1.58,3.141,3.141,0,0,0-.176,2.513l20.388,45.8a4.04,4.04,0,0,1-3.42,5.414l-15.234,1.109q-.194.018-.386.018a4.038,4.038,0,0,1-3.686-2.394Z" transform="translate(-302.492 -236.331)" fill="#2f2e41"/>
      <path id="Path_41" data-name="Path 41" d="M523.505,484.746H512.5l-5.237-28.55h16.246Z" transform="translate(-51.801 -46.586)" fill="#ffb8b8"/>
      <path id="Path_42" data-name="Path 42" d="M778.443,698.316H742.949v-.449a13.815,13.815,0,0,1,13.815-13.815h21.679Z" transform="translate(-303.931 -249.486)" fill="#2f2e41"/>
      <path id="Path_43" data-name="Path 43" d="M759.346,659.787,737.4,610.576a18.035,18.035,0,0,1,7.918-23.151l47.6-25.525,21.721-1.847,20.036-1.821.144.245c.185.312,4.493,7.753,1.581,15.912-2.209,6.189-7.954,11.023-17.077,14.368-21.293,7.807-45.89,14.48-55.477,16.986a3.1,3.1,0,0,0-1.985,1.58,3.141,3.141,0,0,0-.176,2.513l20.388,45.8a4.04,4.04,0,0,1-3.42,5.414l-15.234,1.109q-.194.018-.386.018A4.037,4.037,0,0,1,759.346,659.787Z" transform="translate(-303.207 -236.638)" fill="#2f2e41"/>
      <path id="Path_44" data-name="Path 44" d="M747.353,496.814a150.4,150.4,0,0,1-21.617-40.343,3.863,3.863,0,0,1,1.824-4.65l31.556-16.909a3.813,3.813,0,0,1,3.345-.136,3.878,3.878,0,0,1,2.21,2.59,91.878,91.878,0,0,0,20.154,37.613,3.877,3.877,0,0,1,.932,3.274,3.813,3.813,0,0,1-1.966,2.71L752.234,497.87A3.863,3.863,0,0,1,747.353,496.814Z" transform="translate(-302.152 -223.998)" fill="#ccc"/>
      <path id="Path_45" data-name="Path 45" d="M749.812,495.5a1.166,1.166,0,0,0,1.456.3l31.556-16.909a1.119,1.119,0,0,0,.586-.805,1.183,1.183,0,0,0-.292-1.013,94.583,94.583,0,0,1-20.747-38.721,1.184,1.184,0,0,0-.681-.8,1.119,1.119,0,0,0-1,.041L729.138,454.5a1.166,1.166,0,0,0-.556,1.38,147.707,147.707,0,0,0,21.23,39.621Z" transform="translate(-302.458 -224.304)" fill="#fff"/>
      <path id="Path_46" data-name="Path 46" d="M863.028,496.518l-24.714,9.391-6.034-16.76a10.028,10.028,0,0,1,4.491-12.121h0a10.028,10.028,0,0,1,12.806,2.5Z" transform="translate(-312.993 -228.212)" fill="#6c63ff"/>
      <path id="Path_47" data-name="Path 47" d="M796.211,562.878a4.488,4.488,0,0,1-1.871-3.186c-3.165-29.549-.961-52.673,6.739-70.694a22.439,22.439,0,0,1,14.875-12.732l19.977-1.008.1.05A23.35,23.35,0,0,1,848.8,500.077c-6.425,16.937-11.806,34.571-7.7,48.8a4.6,4.6,0,0,1-.435,3.577,4.386,4.386,0,0,1-2.8,2.073l-38.051,9.052a4.457,4.457,0,0,1-3.606-.7Z" transform="translate(-309.037 -228.164)" fill="#6c63ff"/>
      <circle id="Ellipse_5" data-name="Ellipse 5" cx="22.053" cy="22.053" r="22.053" transform="translate(498.176 195.524)" fill="#ffb8b8"/>
      <path id="Path_48" data-name="Path 48" d="M762.81,461.142l-17.187,7.587a2.7,2.7,0,0,1-3.552-1.376l-.425-.963a2.7,2.7,0,0,1,1.377-3.552l17.187-7.587a2.7,2.7,0,0,1,3.552,1.376l.425.963A2.7,2.7,0,0,1,762.81,461.142Z" transform="translate(-303.775 -226.098)" fill="#ccc"/>
      <path id="Path_49" data-name="Path 49" d="M769.81,474.142l-17.187,7.587a2.7,2.7,0,0,1-3.552-1.376l-.425-.963a2.7,2.7,0,0,1,1.377-3.552l17.187-7.587a2.7,2.7,0,0,1,3.552,1.376l.425.963a2.7,2.7,0,0,1-1.376,3.552Z" transform="translate(-304.49 -227.426)" fill="#ccc"/>
      <path id="Path_50" data-name="Path 50" d="M781.161,519.991l-38.316-30.228a9.442,9.442,0,0,1-.93.274A9.9,9.9,0,0,1,734,488.519a9.8,9.8,0,0,1-4.154-6.944,9.878,9.878,0,0,1,19.426-3.413,9.486,9.486,0,0,1,.206,1.3l38.143,22.005,9.492-5.465,10.515,13.766-14.738,10.5a9.824,9.824,0,0,1-11.726-.286Z" transform="translate(-302.586 -227.683)" fill="#ffb8b8"/>
      <path id="Path_51" data-name="Path 51" d="M819.2,515.18l-21.862-14.867,10.274-14.552a10.028,10.028,0,0,1,12.506-3.268h0a10.028,10.028,0,0,1,5.292,11.926Z" transform="translate(-309.485 -228.804)" fill="#6c63ff"/>
      <path id="Path_52" data-name="Path 52" d="M821.774,435.632c-5.668,3.879-13.11,7.867-18.9,3.736a10.535,10.535,0,0,1-3.457-12.144c2.772-7.927,10.388-11.417,17.671-14.092,9.468-3.478,19.776-6.244,29.55-3.754s18.412,11.953,16.647,21.884c-1.419,7.986-8.952,14.631-7.883,22.671,1.076,8.092,10.176,12.351,18.21,13.8s17.024,1.911,22.8,7.682c7.365,7.362,5.526,20.52-1.4,28.292S877.618,515,867.483,517.4c-13.427,3.173-27.95,4.841-40.7-.425S804.1,497.527,807.8,484.233c1.56-5.615,5.236-10.361,8.789-14.981s7.15-9.451,8.505-15.119c1.129-4.724.293-10.208-2.839-13.751a3.984,3.984,0,0,1-.534-4.657Z" transform="translate(-309.631 -221.339)" fill="#2f2e41"/>
      <path id="Path_53" data-name="Path 53" d="M356.085,547.546a35.074,35.074,0,0,1-33.869-5.966c-11.863-9.957-15.582-26.36-18.608-41.549L294.657,455.1l18.74,12.9c13.477,9.28,27.257,18.857,36.589,32.3s13.4,31.79,5.907,46.333" transform="translate(-258.152 -226.106)" fill="#e6e6e6"/>
      <path id="Path_54" data-name="Path 54" d="M358.235,608.431c1.9-13.816,3.847-27.81,2.517-41.774-1.182-12.4-4.965-24.515-12.668-34.446a57.3,57.3,0,0,0-14.7-13.323c-1.47-.928-2.823,1.4-1.359,2.326a54.476,54.476,0,0,1,21.548,26c4.691,11.932,5.445,24.94,4.636,37.615-.489,7.665-1.525,15.281-2.569,22.886a1.4,1.4,0,0,0,.941,1.657,1.355,1.355,0,0,0,1.657-.941Z" transform="translate(-261.903 -232.598)" fill="#f2f2f2"/>
      <path id="Path_55" data-name="Path 55" d="M332.16,588.231a25.819,25.819,0,0,1-22.5,11.611c-11.388-.541-20.882-8.489-29.428-16.034l-25.278-22.319,16.73-.8c12.031-.576,24.373-1.113,35.832,2.6s22.028,12.639,24.123,24.5" transform="translate(-254.098 -236.847)" fill="#e6e6e6"/>
      <path id="Path_56" data-name="Path 56" d="M360.89,622.742c-9.129-16.154-19.719-34.107-38.64-39.845A43.118,43.118,0,0,0,306,581.219c-1.726.149-1.295,2.809.428,2.66a40.058,40.058,0,0,1,25.937,6.862c7.313,4.978,13.007,11.9,17.827,19.237,2.952,4.5,5.6,9.181,8.241,13.861C359.274,625.335,361.745,624.256,360.89,622.742Z" transform="translate(-259.198 -238.968)" fill="#f2f2f2"/>
      <path id="Path_57" data-name="Path 57" d="M378.7,643.5a19.55,19.55,0,0,0-11.98-16.375v-9.339H351.055v9.633a19.54,19.54,0,0,0-11.328,16.08l-3.683,42.814h46.338Z" transform="translate(-262.378 -242.719)" fill="#f2f2f2"/>
    </g>
  </g>
</svg>
